<svg xmlns="http://www.w3.org/2000/svg" viewBox="0 0 185 129"><path fill="CURRENTCOLOR" d="M70.579 18.945c.019-.023.042-.947.061-1.198.046-.54.1-.822.157-1.199.083-.548.03-.449.03-.449s-.153.605-.1.092c.005-.046-.03.019-.09.407-.027.194-.073.468-.1.852-.053.753 0 1.61.042 1.495"/><path fill="CURRENTCOLOR" d="m96.175 4.417-.6-.092c-.537-.034-1.06.072.6.091z"/><path fill="CURRENTCOLOR" d="m103.99 42.688.015-.03.168-.339s-.103-.027-.168.164a9.225 9.225 0 0 1-1.725 2.126c.21-.186 1.248-.989 1.714-1.921"/><path fill="CURRENTCOLOR" d="M90.718 7.57c.187.012.4.023.637.035-.213-.008-.423-.023-.637-.035z"/><path fill="CURRENTCOLOR" d="M91.634 7.205c.31.015.607 0 .798-.034a3.515 3.515 0 0 1-.504.03c-.225 0-.481-.03-.718-.026a3.216 3.216 0 0 0-.496.08c.294-.054.61-.065.916-.046"/><path fill="CURRENTCOLOR" d="m91.851 4.23-.656.008a9.313 9.313 0 0 0-.676.095c-.023.015-.103.148 1.332-.103z"/><path fill="CURRENTCOLOR" d="M112.34 7.019c-.046-.057-.187-.32.259.125.279.278.672.48-.889-.901-.267-.195-.271-.035.054.27.164.152.603.536.58.51"/><path fill="CURRENTCOLOR" d="M71.426 14.658c-.149.681-.393 1.955-.374 2.054s.19-.787.271-1.179c.11-.529.37-1.583.332-1.575s-.29 1.141-.275.997c.016-.145.122-.662.267-1.244.283-1.172.79-2.58.52-1.914-.1.342-.37 1.153-.562 1.902-.198.746-.332 1.42-.32 1.45a8.03 8.03 0 0 0 .137-.491"/><path fill="CURRENTCOLOR" d="M70.159 28.399c.02-.023-.027-.422-.072-1.039-.065-.612-.092-2.37-.104-2.335-.072.205-.053.981-.148.11-.004-.046-.027.05 0 .514.023.464.087 1.304.32 2.746"/><path fill="CURRENTCOLOR" d="M101.46 45.161s.401-.156.916-.578c.156-.13.145-.164.084-.118-.569.449-1 .692-1 .692"/><path fill="CURRENTCOLOR" d="M104.53 47.264c-.042.019-.084.046-.13.065-.099.038-.198.076-.294.11.141-.057.283-.118.424-.179m-9.209-.057.489-.023c.71-.041 1.515-.099 2.545-.274 1.153-.254 2.481-.684 3.561-1.46a9.67 9.67 0 0 0 .526-.407c-.29.273-.614.559-.984.844-.905.696-3.233 1.27-6.13 1.324M77.079 35.47c.123.361.256.715.401 1.054.34.89.764 1.742 1.256 2.564.637.974 1.538 2.07 2.595 3.047a17.872 17.872 0 0 0 3.4 2.488c2.279 1.294 4.18 1.743 3.813 1.556 1.263.426 2.267.67 3.11.81-5.804-.783-12.35-3.815-14.578-11.52m3.68-15.598c-.974.742-1.7 1.686-2.321 2.64a13.281 13.281 0 0 0-1.439 2.98 14.345 14.345 0 0 0-.68 3.035c-.01.076-.01.156-.018.232.084-3.191 1.786-7.243 5.022-9.396a3.68 3.68 0 0 0 .447-.358c-.321.316-1.008.867-1.008.867m-4.58-11.409c.298-.342.684-.563 1.042-.757.069-.015-.026.054-.229.187-.198.137-.519.335-.782.67a29.543 29.543 0 0 0-1.382 2.118c-.644 1.332-.206.51.249-.296.229-.404.469-.784.538-.88s-.443.75-.405.8c.038.05.676-1.168.927-1.526.24-.365.485-.521.626-.631.294-.202.294-.213.275-.213-.053-.008 0-.054.485-.331.236-.145.607-.32 1.034-.689.443-.377 1.03-.883 1.809-1.526.931-.658.633-.414.042.042-.038.03-.065.05-.1.08 0 0-.003 0-.007.004-.328.259-.641.517-.904.715-.79.693-.542.499-.088.13-.141.121-.481.376-.45.391.03.016.461-.391.74-.627.698-.579 1.507-1.221.217-.141.634-.544 1.126-.867 1.462-1.107.34-.232.534-.365.649-.441.225-.153.107-.1.145-.145.194-.125.37-.259.565-.392.133-.08.309-.194.523-.312.79-.422 2.293-1.152 2.835-1.331-.118.053-.317.144-.6.266.287-.118.543-.224.776-.312a.875.875 0 0 1-.103.065c1.713-.666 2.595-.894 3.396-1.122a20.768 20.768 0 0 1 1.534-.312c-.21.049-.416.106-.626.16-.091.018-.183.03-.27.049a24.087 24.087 0 0 0-9.576 4.417c-.576.44-1.133.913-1.667 1.403-.764.704-1.92.955-2.458 1.716-.996 1.408-1.76 2.93-2.569 4.843.53-2.667 2.16-4.702 2.359-4.972m12.8-7.278-.02.008-.03.007a.354.354 0 0 0 .05-.015zm4.778-.631c.03 0 .065 0 .1-.004-.188.011-.375.03-.566.046.164-.016.32-.027.466-.042zm-3.862 5.55c.37-.053.862-.099.912-.091.023.008-.057.015-.29.05-.206.01-.412.026-.622.041zm1.122-.16c-.13.016-.256.027-.363.042.11-.015.237-.03.363-.042zm4.507.21c.882.194 2.294.665 3.42 1.1-1.798-.644-4.695-1.321-7.996-1.21.676-.119 1.698-.214 3.198-.039a1.263 1.263 0 0 0-.183-.038c.664.05 1.24.118 1.56.187zm5.083 1.849.008.007a4.585 4.585 0 0 0-.393-.22c.18.087.316.16.385.213zm-10.7-.476-.016.019h-.027l.008-.019h.03m.199.015-.023.023c-.065-.008-.115-.011-.157-.015.008-.008.012-.015.016-.02.053.005.107.008.16.012m10.025 1.039s-.038-.008-.053-.008a.69.69 0 0 1 .092.008h-.04zM70.19 26.903c0-.145.027-.312.034-.316.15 2.016.435 3.759.878 5.528a21.631 21.631 0 0 0 2.21 5.577c.809 1.56 1.996 3.108 3.286 4.573.29.3.583.605.885.913.309.3.591.643.958.917.35.285.713.578 1.087.878.367.305.775.609 1.233.868 1.267.768 2.71 1.404 4.217 1.963a38.282 38.282 0 0 0 4.637 1.37 34.77 34.77 0 0 0 2.309.448 18.62 18.62 0 0 0 2.24.198c.714.011 1.397.023 2.038.03.324-.007.637-.019.939-.026.301-.023.591-.042.87-.061l-.218.034a21.011 21.011 0 0 0 3.942-.734l.153-.023a19.154 19.154 0 0 0 4.003-1.628c1.13-.613 2.13-1.27 3.168-2.043a.943.943 0 0 0 .156-.186c.321-.244.63-.503.947-.757.29-.244.607-.465.942-.685.664-.434 1.462-.894 2.034-1.667.184-.182.363-.365.54-.559.495-.685.873-1.312 1.163-1.86.244-.453.446-1.119.118-1.457-.164-.171-.672-.19-.9-.244a2.388 2.388 0 0 0-.32-.038l-.223-.011a11.97 11.97 0 0 0-1.698.034 7.314 7.314 0 0 0-1.64.331c-.539.183-1.096.48-1.535.993-.63.932-.824 1.354-.565 1.164.126-.091.47-.901 1.282-1.35.271-.141.6-.267.966-.35a7.12 7.12 0 0 1 1.347-.153c-.424.19-.824.472-1.16.883-.37.46-3.668 6.51-11.274 8.294-.19.045 3.622-1.248 5.687-4.227a18.46 18.46 0 0 0 1.667-2.971l-.782.38a2.968 2.968 0 0 0-1.103.92l-.374.716s-.095.205-.305.536a4.057 4.057 0 0 0 .168-.357c.107-.251.439-.966.775-1.335-.352.057-.745 1.145-.83 1.308-.002.012-.01.023-.014.03-.271.53-.534.826-.702 1.02-.176.194-.282.29-.397.388-.114.095-.23.198-.45.37a9.591 9.591 0 0 1-.935.661c.06-.042.126-.083.19-.13-.118.08-.236.16-.358.233-.756.464-1.584.76-2.462.959a8.17 8.17 0 0 0 3.187-1.256c-1.034.784-2.03 1.149-2.931 1.366.229-.08.519-.19.05-.084.328-.057-.382.168-1.317.312-.11.015-.221.034-.332.046-.95.11-1.847.14-2.87.16a18.513 18.513 0 0 1-3.584-.316l-.145-.012c-1.186-.228-2.278-.623-2.278-.623s.58.342 2.015.684l.267.027c.39.03.474.125.39.133-.08 0-.516-.019-1.691-.285-1.4-.4-2.084-.708-2.435-.875-.446-.16-.908-.362-1.374-.578-.523-.282-2.671-1.74-3.045-2.059-.199-.17-.134-.152-.057-.102.156.129.316.258.492.384.63.487 2.377 1.586 2.358 1.48-.744-.438-1.675-1.088-1.29-.818-1.43-.92-2.133-1.613-2.427-1.902-.286-.3-.156-.225.271.106-.072-.137-.248-.308-.381-.43-.71-.662-1.199-1.137-1.512-1.537a10.646 10.646 0 0 1-.748-1.061c-.168-.285-.336-.525-.553-.924-.115-.198-.256-.427-.405-.727-.076-.148-.137-.331-.229-.514-.084-.186-.248-.68-.305-.593.492 1.263.893 2.134 1.68 3.245a18.84 18.84 0 0 1-1.039-1.594 20.53 20.53 0 0 1-.297-.578c-.065-.107-.115-.172-.145-.175.08.167.187.395.343.684 0 .058.008.153.08.29.061.114.305.448.634.878l.007.012v-.008c.672.871 1.706 2.134 2.332 2.766.164.164.34.323.52.487-.31-.266-.669-.582-.947-.848-.596-.61-.313-.27-.287-.202.187.19.394.369.596.544.76.723 1.053.962 1.114 1.035.061.072-.183-.137-.187-.11-.007.022.088.113.267.25a57.35 57.35 0 0 0 2.29 1.575c-.603-.32-1.18-.68-1.721-1.05.072.023.16-.015-.275-.27a9.42 9.42 0 0 1-.733-.452c-1.442-1.252-2.121-2.078-2.827-3.036-.676-.974-1.447-2.096-2.191-4.42a2.604 2.604 0 0 0-.076-.214c-.13-.483-.237-.974-.317-1.468-.027-.035-.023.022-.008.137-.39-2.013-.297-4.033-.057-5.319-.034.114-.18.951-.198 1.674-.058.723-.023 1.316-.065.91-.058.117.004.794.042 1.167.099 1.035.232 1.43.145 1.18 0 0-.077-.267.05.464.01.057.026.133.049.22-.16-.563-.324-1.346-.416-2.427-.092-1.19-.073-2.553.16-3.861a14.664 14.664 0 0 1 1.084-3.508c.393-.787.87-1.53 1.427-2.21a11.29 11.29 0 0 1 1.145-1.301c.23-.194.44-.415.691-.594.122-.091.248-.186.37-.281.122-.103.199-.149.294-.251.363-.37.855-.925 1.172-1.442.244-.392.675-1.392.82-1.674.08-.152.206-.426.214-.582.053-.122.091-.232.114-.316a.13.13 0 0 0-.137-.163c-4.087.365-8.831 5.592-9.16 13.448-.125 3.047 1.184 9.845 5.615 13.924-.138-.206-6.168-2.29-7.248-14.513-.874-9.9 7.217-21.373 19.322-19.596 1.87.274 3.11-.004 3.763-.392-.122.095-.244.201-.374.274-.32.179-.637.338-.988.426a4.084 4.084 0 0 0 1.431-.601c-.878.65-1.912.821-2.835.83.11-.07.312-.1.312-.1s.268-.266-1.927-.125c-1 .064-1.442.16-1.61.182-.245.046-.141.053.156.038l-1.572.137-.355-.011c-.118.007-.24.019-.39.026-.61.149-1.117.27-1.472.358-.344.122-.53.202-.52.213-.904.308-1.465.487-1.705.616-.252.107-.222.073.042-.083 0-.061.053-.221-1.47.711-.568.37-1.152.715-1.63 1.05-.919.727-1.572 1.229-1.46 1.073-2.092 1.963-3.81 3.736-4.806 5.775-.961 2.058-1.538 3.861-1.812 6.422-.065.837.248 1.304.343 1.365.149-1.772.42-3.652 1.122-5.702-.023.209.328-.617.828-1.788.294-.567.63-1.222.996-1.86l.607-.921a7.99 7.99 0 0 1 .393-.567c-.019.026-.027.042-.004.023-.164.285-.168.338.004.099.195-.233.607-.716 1.279-1.507-.02 0 .13-.167.404-.453l.5-.517.31-.316.377-.312c.443-.266.637-.354 1.137-.692.546-.266 1.355-.868 3.263-1.678-.477.266-.843.43-1.37.67-.27.102-.542.3-.893.513a39.935 39.935 0 0 0-.908.586c-.107.088-.492.274-.447.419-.007-.03 2.23-1.42 2.332-1.465.202-.095.439-.213.641-.308.409-.187.767-.407 1.153-.514.194-.083-.034-.026-.477.114 4.423-1.521-1.76.742 1.713-.41-.488.174-.958.338-1.381.49l-.057.02c-.45.17-.84.387-1.214.559-.183.09-.363.178-.53.262-.165.091-.31.205-.455.304-2.537 1.58-4.121 3.428-5.27 5.182-1.145 1.769-2.122 3.9-2.378 5.372-.019.106 1.523-3.95 2.485-5.353l.34-.529c.122-.167.255-.323.377-.483l.737-.932.798-.83c.259-.273.519-.551.82-.78.29-.243.58-.483.87-.73.29-.247.63-.433.95-.658.63-.468 1.37-.799 2.138-1.198 1.58-.674 3.457-1.256 5.82-1.397a32.379 32.379 0 0 1 2.305.023h.118c.485.015.828.088 1.393-.03 0 0 .336-.122.015-.061-.92.114-1.19.05-1.16.046.027-.016.355-.03.652-.076.298-.039.558-.103.462-.1-.095-.01-1.007.08-1.213.103-.195 0-.401-.023-.603-.03-.199-.004-.405-.012-.611-.015-.412-.012-.832-.023-1.229-.03-.786.022-1.47.113-1.793.117.538-.068.977-.114 1.347-.152.068-.008.13-.011.194-.015.077 0 .153-.004.24-.004.184.004.352.019.5.015.524.02.89.034 1.356.02.69.049 1.423.033 2.056-.092a4.787 4.787 0 0 0 1.462-.537c.046-.038.103-.087.18-.148.038-.034.08-.068.13-.106.022-.02.045-.038.072-.061-.008.007.038-.03.068-.076a.3.3 0 0 0 .05-.137.455.455 0 0 0-.034-.172c-.145-.228-.29-.277-.45-.372a2.537 2.537 0 0 0-.52-.183c-.625-.156-1.328-.11-1.862.008-.458.102-.832.121-.973.144a31.06 31.06 0 0 1-2.53-.099l.03-.022c.18.01.359.019.542.026-.202-.011-.374-.026-.527-.038a1.41 1.41 0 0 1 .466-.183c-.107.004-.21.016-.313.039a.84.84 0 0 0-.21.14c-.053-.004-.11-.007-.16-.015l.046-.042c.084-.083.164-.137.26-.194a1.127 1.127 0 0 0-.344.228c-.012 0-.027 0-.038-.003.068-.122.393-.544 1.5-.571.35-.008.763.05 1.179-.057 2.259-.582 4.812.179 7.148 1.434.46.247 1 .046 1.118-.023a.113.113 0 0 1-.027.1c-.034.033-.046.03-.065.041a1.544 1.544 0 0 1-.465.114 1.19 1.19 0 0 1-.63-.103c-.225-.114-.481-.262-.81-.418.329.164.573.308.78.418.144.08.278.11.396.126-.042-.004-.084-.008-.126-.015-.045-.012-.095-.023-.14-.038-.012 0-.02-.008-.028-.012a2.285 2.285 0 0 1-.32-.16c-.218-.121-.443-.231-.69-.357.087.05.232.13.339.19-1.012-.51-2.034-1.008-2.706-1.073.26.084.519.172.77.274a10.896 10.896 0 0 0-1.243-.33 10.02 10.02 0 0 0-1.065-.195 6.37 6.37 0 0 0-1.313-.038c-.091-.011-.45-.011-1.21.149-.335.064-.625.05-.862.057a3.518 3.518 0 0 0-.576.06 1.894 1.894 0 0 0-.577.202c.042-.019.088-.026.13-.042a1.644 1.644 0 0 0-.194.092c-.104.06-.096.072-.035.042.122-.065.554-.206 1.03-.198.252-.023.539-.008.813-.03.283-.02.542-.111.745-.157.423-.106.736-.144.77-.167.73-.023.997.038 1.195.072.202.046.347.08.77.183-.194-.008.764.224.913.258.229.08.626.252.718.206-.142-.076-.447-.179-.588-.247.61.167 1.58.551 1.958.76a5.71 5.71 0 0 0-.52-.258c.417.171.817.369 1.214.574l.294.16c.095.053.237.118.363.145.259.057.522.034.767-.03a1.612 1.612 0 0 1-.481.11c-.45-.02-.557-.092-.512-.061.02.011.107.06.29.099.187.034.462.053.832-.065.042-.015.084-.034.134-.057.027-.023.042 0 .16-.126a.375.375 0 0 0 .058-.335c-.046-.129-.088-.167-.123-.209a1.181 1.181 0 0 0-.103-.103 2.726 2.726 0 0 0-.385-.285 7.126 7.126 0 0 0-.779-.426c-.526-.255-1.305-.688-1.618-.643.737.29 1.454.624 2.099 1.035.26.171.565.407.664.57-.187-.22-.385-.338-.587-.471a7.71 7.71 0 0 0-.611-.346c-.408-.21-.82-.392-1.233-.552a16.6 16.6 0 0 0-2.5-.742c.126.015.256.034.375.05.767.17.393.042.24 0l-.156-.046a13.922 13.922 0 0 0-.516-.13l-.347-.056c-.985-.183-3.015-.217-3.854-.137a13.54 13.54 0 0 0-.981.099 15.35 15.35 0 0 1 1.87-.092c-1.431-.011-2.626.22-3.68.46-.125.023-.278.058-.38.073-.096.019-.108.019-.016.007.027 0 .053-.007.088-.015.63-.099 1.297-.247 1.95-.327-.786.148-1.034.217-1.015.232-4.47.434-7.476 1.62-10.926 3.892 2.587-2.713 7.125-5.079 12.22-5.779l.4-.023a1.59 1.59 0 0 0 .332-.072c.21-.023.42-.034.63-.05h-.015c-.187.039-.222.16.053.153.275-.008 1.18-.03 1.77-.012-.236-.095-.72-.178-1.186-.186.89-.042 1.786-.034 2.687.034 8.098.632 11.567 4.067 12.769 4.66.805.396 1.496.666 2.095.845a12.903 12.903 0 0 1-2.251-.29c-.012 0-.458-.14-.65-.254a7 7 0 0 1-.564-.361c.164.09.508.228.737.338.042-.133-.31-.468-1.142-.86l-1.541-.954c-.027 0 1.232.92 1.324 1.065-.13-.065-.386-.27-.89-.624-.774-.518-1.82-1.472-2.331-1.206-.042.007.374.201 1.015.548a26.9 26.9 0 0 1 2.355 1.468c.446.29.858.635 1.423.833.512.152 1.019.27 1.492.354.943.175 1.745.187 2.14.183h.02-.02c-.262.026-.262.05.246.03a.052.052 0 0 0 .026-.007c1.886.129 2.199-1.024 2.199-1.024.045-.171-.218-.928-.916-1.339-.122-.03.736.628.652 1.084l-.007-.007a.984.984 0 0 0-.092-.251c-.08-.156-.21-.26-.31-.366a6.775 6.775 0 0 0-.236-.236c-.122-.125-.194-.205-.194-.22-1.046-.947-1.645-1.533-2-1.822-.351-.29.473.544-.794-.389a51.201 51.201 0 0 1 1.538 1.279c.382.327.817.722 1.198 1.084l.275.262c.096.095.187.187.27.267a.73.73 0 0 1 .116.17c-1.23-1.175-3.233-2.951-4.36-3.708a23.25 23.25 0 0 0-2.197-1.309c-.023-.02-.038-.034-.042-.046.157-.004.248.023.374.035l.565.076.519.072c.099.015.206.03.328.046-.15.011-.393-.03-.393-.03s-.042.056.206.068c.05 0 .149 0 .203.007.053 0 .118.038.17-.007a.39.39 0 0 0 .097-.354c-.027-.145-.187-.251-.195-.251a12.89 12.89 0 0 0-.244-.171 5.651 5.651 0 0 0-1.13-.67 5.117 5.117 0 0 0-1.24-.361c.22.022.748.152.744.117-.004-.034-.572-.167-1.053-.213-.832-.129-1.008-.175-1.18-.19-.171-.015-.13.027-.393.008-.263-.02-.881-.164-1.55-.282-.331-.06-.697-.118-1.026-.209a23.5 23.5 0 0 0-1.106-.278c.11-.022-.012-.03-.012-.03l-.21-.034c-.057-.008-2.046-.407-2.274-.438-.23-.026-.268-.007-.123.057.146.065-2.556-.265-3.54-.243-.985.019-1.565.072-1.176-.008-.007-.038-.408 0-.728.084-.699.182.145.156 1.095.046.954-.115 2.786.072 2.786.08 0 .007 2.984.308 3.748.43.526.11.942.216 1.316.319-.168-.038-.53-.118-.53-.11s.568.167.87.25c.286.065.63.1.92.145.748.14 1.35.247 2.48.4l.71.064c.588.08 1.038.217 1.466.411.217.1.43.213.664.358.244.156.454.316.767.532.057.042.08.134.076.229a.327.327 0 0 0-.141-.217c-.23-.217-.302-.137-.302-.137l.248.171c.023.02.115.05.13.084a.24.24 0 0 1-.061.289c-.057.057-.592-.046-.683-.061-.092-.019-.057-.076-.435-.114-.134-.015-.313-.008-.57-.03-.06-.004-.13-.008-.201-.016h-.118c-.035-.019-.065-.038-.1-.053-.23-.118 1.183.076 1.989.194.133.019.198-.152.087-.232l-.622-.441c-.026-.02-.053-.03-.08-.05-.328-.236-.412-.274-.565-.376a2.957 2.957 0 0 0-.553-.24 4.024 4.024 0 0 0-.6-.149c-.243-.034-.541-.08-.904-.129-.782-.137-2.701-.456-2.701-.422s1.087.25 2.77.525c.79.099.897.095.634.034.48.099.259.103.252.122h-.004c-1.42-.19-3.97-.544-4.511-.693A24.454 24.454 0 0 0 98.4.665c-.218-.038-.187-.054-.054-.057.317-.016 1.18.06.546-.038.275.038.748.118 1.27.22.665.171-.056.057 1.23.388.72.187.916.168.767.13l-.428-.122a20.824 20.824 0 0 0-.812-.236c-.294-.08-.62-.152-.947-.22a15.8 15.8 0 0 0-2.359-.316c-.862-.042-1.744-.088-3.53-.03.264-.043.477-.07.298-.073 0 0-.02 0-.03-.004.488-.023 1.534-.015 1.537-.034 0-.02-.912-.107-2.282-.015-.805.03-1.874.22-1.389.118-1.572.228-1.74.32-1.393.258a28.47 28.47 0 0 1 1.767-.198c-.859.13-1.797.263-3.51.674-.344.08-.676.167-.985.258.477-.148.782-.243.973-.3.374-.091.77-.179 1.133-.251-.076-.084-1.458.186-2.961.696-.32.099-.474.137-.222.023-1.484.555-1.728.723-1.496.631-.412.175-.797.347-1.14.506a8.97 8.97 0 0 0-.58.27c-.215.1-.402.183-.547.248l.374-.21c-.53.255-1.05.53-1.56.822-.504.377-.027.084.832-.388-.92.521-1.97 1.221-2.836 1.899-.862.68-.698.555-.706.582-.24.194-.458.369-.653.52a6.489 6.489 0 0 1-.461.34l.324-.282-.347.27a3.3 3.3 0 0 1-.355.224c-.252.145-.53.27-.82.419-.451.3-.237.198.293-.065.26-.13.6-.293.912-.525.34-.274.714-.582 1.1-.894a2.803 2.803 0 0 1-.264.248c-.092.076-.206.178-.363.312l-.263.224c-.088.076-.18.156-.298.24.302-.202.665-.53 1.027-.837.366-.312.729-.662 1.137-.97.756-.552 1.45-.99 1.84-1.203-.84.533-1.973 1.34-2.546 1.895l-.916.715-.229.179c-.068.053-.133.11-.206.16-.14.103-.297.19-.458.278-.274.178-.732.391-1.232.734a2.516 2.516 0 0 0-.676.685 16.74 16.74 0 0 0-.473.73c-.584.955-.863 1.56-.779 1.282.233-.54.626-1.32.58-1.35-.045-.027-.42.825-.51 1.042-.008.019-.016.027-.02.038.137-.43.21-.65.24-.742.119-.304.245-.612.36-.879-.169.346-.306.655-.432.951l-.172.438-.08.217c.16-.502.351-1.012.542-1.476.019-.038.038-.084.053-.118.191-.48.367-.784.481-1.08.05-.145.16-.278.142-.385.038-.24-.207-.186-.268-.148l-.194.091c-.462.16-1.18.415-1.771 1.088-.202.228-.122.224-.095.205.324-.167-.28.309-.71 1.15-.294.665-.657 1.529-.859 2.187.198-.502.412-.974.622-1.465l.34-.75a5.615 5.615 0 0 1 1.293-1.574 4.7 4.7 0 0 1 .874-.605c.15-.084.302-.168.458-.259.023-.015.05-.015.077-.004-.05 0-.107.023-.13.054-.08.045-.153.09-.225.133-.286.17-.504.296-.584.361-.073.061.118-.05.053.004-.252.148-.244.16-.492.373-.248.209-.48.445-.698.707.293-.342.61-.627.95-.878.149-.11.301-.202.45-.293-.374.213-.164.076.237-.19.069-.042.141-.092.221-.141.038-.023.077-.054.122-.073a.106.106 0 0 1 .103.027l-.813.56a4.61 4.61 0 0 0-1.27 1.32l-.245.387c-2.247 4.957-2.152 9.108-2.205 9.306-.126.49-.397 2.088-.485 2.85-.313 2.635-.221 15.665 10.33 23.21 2.127 1.517 5.9 2.959 10.649 3.77 1.05.178 2.13.258 3.225.258 2.72.114 5.178-.164 7.453-.826a.562.562 0 0 1-.08.057c-1.455.499-3.019.807-4.637.936a22.9 22.9 0 0 1-2.465.057 21.139 21.139 0 0 1-2.504-.121c-1.66-.217-3.347-.598-5-1.073-1.652-.487-3.29-1.073-4.846-1.815-.779-.373-1.538-.78-2.24-1.259-.676-.529-1.359-1.05-2.011-1.602l-.916-.894c-.302-.296-.622-.582-.878-.92-.534-.655-1.118-1.271-1.565-1.979-1.923-2.739-3.22-5.782-3.95-8.757-.229-1.046-.515-2.922-.515-2.922s-.088-.415-.195-1.194a35.916 35.916 0 0 1-.202-2.682c-.007-.434-.011-.83-.015-1.13.008-.3.008-.51 0-.575-.004-.13-.08.316-.095 1.762.01.624.057 1.791.057 1.791s-.046-.216-.061-.582c-.016-.361-.02-.745-.02-.745s-.068.464-.038 1.206c.016.407.039.909.13 1.267"/><path fill="CURRENTCOLOR" d="m79.715 16.868.02-.05-.028.023c-.35.202-.992.708-1.686 1.442-.672.75-1.39 1.724-1.981 2.777a17.643 17.643 0 0 0-1.477 3.98c-.061.228-.118.46-.164.684v.008s0 .011-.004.015v-.007l-.057.25a2.122 2.122 0 0 1-.012.065c-.187.921-.194.328-.194.328s-.073-.514-.096 1.392c0 .175 0 .255-.019.791v.023l-.011.251c-.05.906 0 1.803.118 2.648-.175-1.491.05-2.88.08-3.306.03-.426.233-2.05.447-2.796l-.118.152c.377-1.563.896-3.028 1.679-4.485.797-1.442 1.85-2.914 3.495-4.189"/><path fill="CURRENTCOLOR" d="M82.379 15.32c-.21.06-.424.114-.622.21-.202.083-.405.17-.61.258-.195.106-.39.213-.588.323-.245.164-.455.373-.668.567.897-.65 1.515-.902 1.954-1.107.217-.114.416-.156.595-.228.267-.091.557-.194.813-.175-.233-.042-.61.076-.874.156"/><path fill="CURRENTCOLOR" d="M84.249 15.327a.45.45 0 0 0-.141-.152c-.042-.038-.126-.015-.183-.02l-.672.012c.267.004.477.03.74.034.107.042.225.156.218.24.015.053.011.205-.015.415 0-.08-.008-.156-.004-.22-.02-.111.011-.214-.1-.332a.185.185 0 0 0-.183-.065h-.217c-.145 0-.294.004-.443.008-.145 0-.294 0-.47.046-.236.08-.202.083-.015.038.199-.057.401-.015.745-.027.084 0 .213.008.301.004.214-.012.244.202.252.274.008.064-.053.213-.057.289-.05.335-.237.555-.29.711-.08.248-.435.97-.435.986 0 .03.347-.29.442-.537.035-.095.164-.327.245-.582.038-.114.137-.209.179-.323-.1.483-.32 1.137-.767 1.75-.275.38-.393.879-.687 1.32-.145.22-.263.434-.443.635-.095.1-.435.43-.519.483-.145.134-.587.335-.748.499-.095.11.084.083.744-.38-1.228.874-1.717 1.536-2.015 1.84-.27.335-.328.37-.362.377-.03.012-.03.008-.237.236-.458.51-1.183 1.929-1.148 1.876.16-.24.396-.643.58-.88-.26.484-.706 1.45-.699 1.492.008.038.557-1.183 1.11-2.031a.574.574 0 0 1-.053.091c-.095.14-.015.228-.015.228.168-.274 1.279-1.685 1.263-1.72-.007-.01-.08.042-.198.153a9.985 9.985 0 0 1 1.332-1.24c.194-.141.439-.316.63-.453.244-.175.454-.407.614-.609.332-.407.485-.81.702-1.232l.069-.122a16.61 16.61 0 0 0 .649-1.404c.042-.114.08-.228.114-.335.042-.129.08-.255.118-.373a2.2 2.2 0 0 0 .088-.338c.015-.076.03-.152.034-.217v-.008c0-.019.008-.041 0-.057a1.154 1.154 0 0 0-.068-.384"/><path fill="CURRENTCOLOR" d="M78.166 36.483c-.02-.095-.103-.29-.263-.787a42.903 42.903 0 0 0-.15-.43 22.127 22.127 0 0 0-.16-.563c-.064-.21-.091-.457-.148-.723-.061-.267-.195-.887-.21-.887-.02 0 .19.997.13.852a6.99 6.99 0 0 1-.21-.776l-.065-.52c-.027-.35-.054-.765-.054-1.29a2.143 2.143 0 0 0-.03-.32c-.038-1.78.317-3.314.324-2.884-.221 1.473-.187 2.028-.248 2.618.03-.229.061-.453.088-.426.019-1.092.103-1.815.195-2.367.091-.551.167-.909.236-1.217.145-.609.206-1.039.763-2.23-.183.373-.324.632-.538 1.165-.194.532-.507 1.331-.72 2.826.041-.49.045-.627-.054-.258-.08.369-.24 1.251-.199 2.807 0-.43.038-.86.076-1.286-.042.795-.019 1.248-.022 1.526-.004.266-.008.369-.008.46-.004.084-.008.152 0 .365.008.107.011.251.034.453l.119.788c.034.304-.023.129-.012.334.038.198.046.818.71 2.572.206.422.546 1.176.546 1.176.355.776 1.282 2.237 1.293 2.206.012-.03-.965-1.533-1.328-2.359.596 1.035-.168-.51.103-.14-.32-.735-.152-.499-.198-.685"/><path fill="CURRENTCOLOR" d="M91.622 4.664c.859-.015 3.229.152 3.229.152s1.465.057 2.702.259c.377.08.778.186 1.267.3.53.149.885.149 1.69.392.813.232 2.393.936 2.424.871-.698-.365-1.946-.848-3.02-1.171-1.068-.331-3.14-.856-5.464-.933-.328-.038-.405-.08-.683-.095 0 0-.687-.095-1.084-.129-1.359.038-4.057.293-4.099.49-.007.043.31-.03.31-.03 1.29-.224 2-.25 2.606-.258-.752.083-2.767.346-2.76.4.008.052 2.023-.23 2.882-.252"/><path fill="CURRENTCOLOR" d="M85.386 2.526a18.59 18.59 0 0 0-1.576.768c.397-.213 1.06-.536 1.576-.768z"/><path fill="CURRENTCOLOR" d="m75.38 7.334-.13.084-.26.167c-.022.016-.045.027-.068.042.126-.072.328-.156.6-.35-.058-.011-.1.03-.142.057"/><path fill="CURRENTCOLOR" d="M70.789 17.747c.088-.65.004.373.122.913 0-.723.19-3.055.19-3.055s-.117.19-.228.94c-.057.388-.145 1.054-.084 1.202z"/><path fill="CURRENTCOLOR" d="M84.951 10.218c-.126.084 1.576-.54 1.603-.574.06-.073-1.477.49-1.603.574z"/><path fill="CURRENTCOLOR" d="M90.344 7.346c.103-.038.229-.065.374-.092a2.588 2.588 0 0 0-.515.118c.05-.007.091-.019.141-.026z"/><path fill="CURRENTCOLOR" d="M75.002 35.357a27.883 27.883 0 0 1-.721-2.971c-.061-.286-.1-.601-.15-.894.07.578.161 1.183.283 1.773.16.707.428 2.039.588 2.088"/><path fill="CURRENTCOLOR" d="M85.123 44.252c.145.103.26.236 1.538.852.378.202-.053.065.592.377a11.61 11.61 0 0 0 1.747.513c-.309-.099-.56-.175-.782-.262-.39-.206-.61-.308-1.057-.525-.443-.22-1.13-.537-2.332-1.343-.817-.487.126.202 1.187.791a6.262 6.262 0 0 0 .18.103c.736.4 1.469.727 1.503.78-.656-.282-.798-.362-1.019-.495-.221-.133-.546-.289-1.5-.844-.725-.415-.19-.065-.057.057"/><path fill="CURRENTCOLOR" d="M81.204 20.421c.092-.16-1.095.704-2.023 1.906.584-.727 1.996-1.773 2.023-1.906z"/><path fill="CURRENTCOLOR" d="M80.028 21.711c-.26.255-.52.514-.752.795-.858 1.354.107-.156.752-.795z"/><path fill="CURRENTCOLOR" d="M82.444 42.676c-.34-.316-1.9-1.857-1.9-1.857s.427.522.683.788c.255.27 1.148 1.1 1.217 1.069z"/><path fill="CURRENTCOLOR" d="M79.574 39.576s.02.122.416.64c.362.47.553.604.553.604l-.969-1.244z"/><path fill="CURRENTCOLOR" d="M80.028 21.711c.1-.103.31-.236.412-.331-.004-.122-.168.08-.412.331z"/><path fill="CURRENTCOLOR" d="M76.574 29.285s-.034.069-.05.323c-.072.792-.023 1.309-.023 1.309s.012-.78.023-.943c.016-.164.027-.16.039-.115.023.088.045.335.084-.308.019-.277.03-.555.064-.833-.103.746-.106.556-.137.57"/><path fill="CURRENTCOLOR" d="M75.067 35.292s.153.4.198.51l-.084-.37c-.068-.182-.114-.14-.114-.14z"/><path fill="CURRENTCOLOR" d="M74.868 24.667c.168-.487.34-1.115.447-1.313.583-1.578-.237.198-.638 1.88-.038.304.046-.072.191-.567z"/><path fill="CURRENTCOLOR" d="M102.77 65.472c-.599.133-1.881.361-2.912.43-8.739.593-8.811.236-11.892.357-2.816.11-5.884-.65-5.884-.65s-.015.122.11.335c.126.209.336.35.336.35 1.042.532 1.012 1.183 1.656 1.107 0 0 2.355.167 4.256.045 1.9-.125 4.702-.262 7.964.084 5.382.574 5.172.099 5.172.099s-.15-.327-.355-.358c-.473-.068-.595-.369-.595-.369l2.09-1.015c.123-.18.26-.457.05-.407"/><path fill="CURRENTCOLOR" d="M17.601 106.5c.168-.084.279-.156.332-.221.05-.065.088-.221.11-.472l.409-3.762c0-.042-.053-.072-.157-.095-.103-.019-.167 0-.187.061-.774 1.757-1.671 3.035-2.69 3.842-1.019.806-2.29 1.206-3.82 1.206s-2.946-.407-4.183-1.221-2.213-1.959-2.927-3.432c-.714-1.476-1.069-3.15-1.069-5.033 0-1.883.336-3.568 1.008-5.002.672-1.431 1.61-2.53 2.816-3.291 1.206-.765 2.573-1.145 4.107-1.145 1.534 0 2.93.449 4.01 1.346 1.08.898 1.894 2.207 2.44 3.919.041.084.114.114.22.095.104-.02.157-.061.157-.126L17.8 89.03c-.042-.25-.084-.41-.126-.487-.042-.072-.149-.152-.313-.236-1.427-.646-3.3-.973-5.629-.973-2.202 0-4.194.433-5.976 1.3s-3.187 2.074-4.213 3.622C.515 93.805 0 95.56 0 97.526s.492 3.747 1.477 5.284c.985 1.536 2.358 2.727 4.121 3.576 1.764.848 3.763 1.27 6.007 1.27 2.118 0 4.122-.388 6.007-1.16"/><path fill="CURRENTCOLOR" d="M88.622 87.716a30.8 30.8 0 0 1-1.698.065c-.44 0-.996-.02-1.668-.065l-1.29-.03c-.042 0-.061.06-.061.186s.02.186.061.186c.817 0 1.446.297 1.89.894.438.598.66 1.45.66 2.557v11.1L75.191 89.318s-1.122-1.499-2.843-1.499l-1.591-.069a17 17 0 0 1-1.164-.03l-1.26-.03c-.042 0-.064.06-.064.186s.023.187.065.187c.503 0 .992.125 1.461.376.473.251 1 .689 1.588 1.316v13.733c0 1.108-.248 1.956-.74 2.542s-1.191.88-2.092.88c-.065 0-.095.063-.095.19 0 .124.03.185.095.185.63 0 1.11-.01 1.446-.03l1.855-.03 1.668.03c.294.023.721.03 1.29.03.042 0 .065-.06.065-.186s-.023-.19-.065-.19c-.84 0-1.477-.293-1.92-.879-.439-.586-.66-1.43-.66-2.542V90.724l14.75 17.09c.042.041.114.052.221.03.107-.023.157-.065.157-.126v-16.21c0-1.107.229-1.959.69-2.556s1.111-.894 1.95-.894c.043 0 .066-.061.066-.187 0-.125-.02-.186-.065-.186l-1.386.03h.008z"/><path fill="CURRENTCOLOR" d="M118.74 102.37a.339.339 0 0 0-.172-.046c-.084 0-.126.019-.126.065-.756 2.716-2.538 4.074-5.347 4.074h-1.541c-.672 0-1.138-.137-1.401-.407s-.393-.753-.393-1.442v-7.117h1.08c2.347 0 3.522.897 3.522 2.697 0 .042.061.061.187.061s.187-.019.187-.061c0-.419-.023-.963-.064-1.632l-.031-1.473.031-2.727c0-.065-.058-.095-.172-.095-.115 0-.172.03-.172.095 0 1.548-1.152 2.32-3.461 2.32h-1.115v-6.395c0-.646.157-1.107.47-1.38.316-.27.851-.408 1.603-.408h1.259c2.412 0 3.87 1.191 4.373 3.576.02.061.088.084.203.061.114-.019.171-.053.171-.095l-.061-4.074c0-.187-.103-.282-.313-.282h-13.086c-.065 0-.095.061-.095.187 0 .125.03.186.095.186.691 0 1.206.057 1.542.171.336.114.561.32.676.613.114.293.171.753.171 1.38v14.518c0 .628-.057 1.092-.171 1.396-.115.304-.336.506-.661.613-.324.106-.843.156-1.557.156-.065 0-.095.064-.095.186s.03.186.095.186h13.651c.187 0 .313-.034.378-.11s.095-.194.095-.361c0-1.317.104-2.77.313-4.36 0-.02-.026-.046-.08-.08"/><path fill="CURRENTCOLOR" d="M148.96 107.17c.061-.072.095-.194.095-.361 0-1.298.096-2.926.283-4.893 0-.061-.054-.099-.157-.11-.107-.011-.168.015-.187.08-.336 1.4-1.019 2.515-2.045 3.34-1.027.826-2.286 1.24-3.775 1.24h-1.889c-.607 0-1.049-.042-1.32-.125a.811.811 0 0 1-.55-.502c-.095-.252-.141-.659-.141-1.222V90.256c0-.628.057-1.092.172-1.396.114-.304.336-.514.66-.628s.832-.171 1.527-.171c.061 0 .095-.061.095-.187 0-.125-.031-.19-.095-.19l-1.573.03c-.923.042-1.698.065-2.328.065a47.45 47.45 0 0 1-2.263-.064l-1.603-.03c-.042 0-.061.064-.061.19 0 .125.019.186.061.186.691 0 1.206.057 1.542.171s.561.32.676.613c.114.293.171.753.171 1.38v14.518c0 .627-.057 1.091-.171 1.395-.115.304-.336.506-.661.613-.324.106-.843.156-1.557.156-.042 0-.061.06-.061.187s.019.186.061.186h14.72c.187 0 .313-.034.378-.11"/><path fill="CURRENTCOLOR" d="M54.875 106.9c-.565 0-1.095-.278-1.588-.83-.492-.551-1.106-1.582-1.839-3.089L43.743 87.49c-.02-.06-.103-.095-.252-.095-.149 0-.24.03-.282.095l-6.763 15.176c-.523 1.171-.973 2.054-1.351 2.647-.378.598-.767 1.008-1.164 1.241-.397.228-.893.346-1.477.346-.103 0-.156.064-.156.19s.053.186.156.186c.439 0 .996-.019 1.668-.06a36.065 36.065 0 0 1 1.98-.061c.565 0 1.279.022 2.077.061.713.041 1.259.06 1.637.06.103 0 .156-.06.156-.186s-.053-.19-.156-.19c-.943 0-1.68-.187-2.202-.563-.523-.377-.786-.932-.786-1.663 0-.502.137-1.065.408-1.693l.267-.586a1.437 1.437 0 0 1 1.305-.837h3.843c.523.004 1-.289 1.237-.753h-1.912l.568-1.206a1.389 1.389 0 0 0-1.244.75.842.842 0 0 1-.748.452l-2.389-.015 4.19-9.286 6.385 12.919c.36.754 1.08 2.728 2.298 2.728.397 0 1.038.023 1.92.06.881.043 1.518.062 1.919.062.103 0 .156-.061.156-.187 0-.125-.053-.19-.156-.19"/><path fill="CURRENTCOLOR" d="M184.83 106.9c-.564 0-1.095-.278-1.587-.83-.493-.551-1.107-1.582-1.84-3.089l-7.705-15.491c-.023-.06-.107-.095-.252-.095s-.24.03-.282.095l-6.763 15.176c-.523 1.171-.973 2.054-1.351 2.647-.377.598-.767 1.008-1.164 1.241-.397.228-.893.346-1.477.346-.103 0-.156.064-.156.19s.053.186.156.186c.439 0 .997-.019 1.668-.06.756-.042 1.416-.061 1.981-.061s1.278.022 2.076.061c.714.041 1.259.06 1.637.06.103 0 .157-.06.157-.186s-.054-.19-.157-.19c-.942 0-1.679-.187-2.202-.563-.523-.377-.786-.932-.786-1.663 0-.502.137-1.065.408-1.693l.267-.586a1.438 1.438 0 0 1 1.306-.837h3.843c.522.004 1-.289 1.236-.753h-1.912l.569-1.206a1.38 1.38 0 0 0-1.241.75.842.842 0 0 1-.748.452l-2.389-.015 4.191-9.286 6.385 12.919c.354.754 1.08 2.728 2.297 2.728.397 0 1.038.023 1.92.06.881.043 1.518.062 1.919.062.103 0 .157-.061.157-.187 0-.125-.054-.19-.157-.19"/><path fill="CURRENTCOLOR" d="M10.716 126.92c-.343.388-.794.586-1.359.586-.564 0-1.022-.198-1.366-.586s-.519-.905-.519-1.544.176-1.141.52-1.529.8-.594 1.365-.602c.565-.007 1.016.191 1.359.579.343.388.52.905.52 1.552s-.177 1.156-.52 1.544zm-1.359-4.165c-.725 0-1.312.243-1.755.723-.443.479-.664 1.118-.664 1.902 0 .783.221 1.423.664 1.909.45.48 1.03.723 1.755.723.725 0 1.313-.243 1.756-.723.45-.486.672-1.126.664-1.909-.008-.784-.229-1.423-.672-1.902-.442-.48-1.023-.723-1.748-.723z"/><path fill="CURRENTCOLOR" d="M19.203 125.61h-1.32v-2.29h1.32c.68 0 1.145.456 1.145 1.126 0 .669-.45 1.164-1.145 1.164zm1.672-1.164c0-.48-.153-.868-.458-1.164-.298-.297-.695-.442-1.191-.442H17.37v5.071h.512v-1.826h1.435l1.06 1.826h.58l-1.137-1.932c.649-.206 1.054-.776 1.054-1.537"/><path fill="CURRENTCOLOR" d="M30.248 126.96c-.45.373-.946.556-1.496.556-.626 0-1.13-.198-1.511-.586-.382-.396-.573-.913-.573-1.56s.191-1.164.573-1.552c.389-.396.893-.594 1.511-.594.52 0 1.183.252 1.695.624l.22-.433c-.572-.419-1.32-.678-1.93-.678-.771 0-1.397.244-1.878.731-.473.479-.71 1.118-.71 1.91 0 .791.237 1.423.702 1.902.474.479 1.1.723 1.87.723.36 0 .718-.076 1.092-.229.374-.152.68-.35.916-.601v-1.856h-.481v1.643z"/><path fill="CURRENTCOLOR" d="m37.102 126.33 1.053-2.876 1.054 2.876h-2.107zm.778-3.493-1.915 5.071h.557l.42-1.141h2.435l.42 1.141h.549l-1.908-5.071h-.557z"/><path fill="CURRENTCOLOR" d="m48.868 127.06-2.732-4.219-.016.008v-.008h-.511v5.071h.511v-4.211l2.733 4.211.015-.007v.007h.511v-5.071h-.511v4.219z"/><path fill="CURRENTCOLOR" d="M55.867 122.84h-.511v5.071h.511v-5.071z"/><path fill="CURRENTCOLOR" d="M64.087 123.22c.511 0 1.16.244 1.649.617l.236-.427c-.557-.403-1.32-.677-1.908-.677-.77 0-1.397.244-1.87.731-.465.479-.702 1.118-.702 1.91 0 .791.237 1.43.702 1.917.473.479 1.1.723 1.87.723.588 0 1.351-.267 1.908-.685l-.236-.419c-.489.366-1.138.617-1.649.617-.626 0-1.13-.198-1.519-.594-.381-.395-.572-.913-.572-1.559 0-.647.19-1.165.572-1.56.39-.396.893-.594 1.519-.594"/><path fill="CURRENTCOLOR" d="M78.689 122.84h-.511v5.071h2.755l.061-.471H78.69v-4.6z"/><path fill="CURRENTCOLOR" d="M89.489 126.14c0 .404-.122.723-.374.974-.252.244-.58.365-.985.365-.404 0-.74-.121-.992-.365-.252-.251-.374-.57-.374-.974v-3.302h-.511v3.352c0 .54.175.981.519 1.316.343.327.801.495 1.358.495s1.008-.168 1.351-.495c.344-.335.52-.776.52-1.316v-3.352h-.512v3.302z"/><path fill="CURRENTCOLOR" d="M99.278 122.84h-.588l-1.301 2.001-1.313-2.001h-.61l1.58 2.412-1.733 2.659h.595l1.443-2.202 1.438 2.202h.611l-1.713-2.613 1.591-2.458z"/><path fill="CURRENTCOLOR" d="M107.95 126.14c0 .404-.122.723-.374.974-.252.244-.58.365-.984.365-.405 0-.741-.121-.993-.365-.252-.251-.374-.57-.374-.974v-3.302h-.511v3.352c0 .54.175.981.519 1.316.343.327.801.495 1.359.495.557 0 1.007-.168 1.351-.495.343-.335.519-.776.519-1.316v-3.352h-.512v3.302z"/><path fill="CURRENTCOLOR" d="M116.19 125.61h-1.321v-2.29h1.321c.679 0 1.145.456 1.145 1.126 0 .669-.451 1.164-1.145 1.164zm1.671-1.164c0-.48-.152-.868-.458-1.164-.297-.297-.694-.442-1.19-.442h-1.855v5.071h.511v-1.826h1.435l1.061 1.826h.58l-1.137-1.932c.649-.206 1.053-.776 1.053-1.537"/><path fill="CURRENTCOLOR" d="m124.64 125.32-1.481-2.481h-.587l1.809 2.971v2.1h.511v-2.081l1.82-2.99h-.583l-1.489 2.481z"/><path fill="CURRENTCOLOR" d="M141.91 125.11h-2.733v-2.275h-.511v5.071h.511v-2.316h2.733v2.316h.511v-5.071h-.511v2.275z"/><path fill="CURRENTCOLOR" d="M151.82 126.92c-.343.388-.794.586-1.358.586-.565 0-1.023-.198-1.367-.586-.343-.388-.519-.905-.519-1.544s.176-1.141.519-1.529c.344-.388.802-.594 1.367-.602.564-.007 1.015.191 1.358.579.344.388.519.905.519 1.552s-.175 1.156-.519 1.544zm-1.358-4.165c-.725 0-1.313.243-1.756.723-.443.479-.664 1.118-.664 1.902 0 .783.221 1.423.664 1.909.45.48 1.031.723 1.756.723s1.312-.243 1.755-.723c.45-.486.672-1.126.664-1.909-.007-.784-.229-1.423-.672-1.902-.442-.48-1.022-.723-1.747-.723"/><path fill="CURRENTCOLOR" d="M157.68 123.33h1.549v4.576h.504v-4.576h1.481l.061-.495h-3.595v.495z"/><path fill="CURRENTCOLOR" d="M167.12 125.62h2.229v-.449h-2.229v-1.856h2.412v-.48h-2.923v5.071h2.923l.054-.479h-2.466v-1.807z"/><path fill="CURRENTCOLOR" d="M175.74 122.84h-.511v5.071h2.755l.061-.471h-2.305v-4.6z"/></svg>